<?xml version="1.0" encoding="UTF-8"?>
<!DOCTYPE svg PUBLIC "-//W3C//DTD SVG 1.1//EN" "http://www.w3.org/Graphics/SVG/1.1/DTD/svg11.dtd">
<!-- Creator: CorelDRAW 2020 -->
<svg xmlns="http://www.w3.org/2000/svg" xml:space="preserve" width="28mm" height="18mm" version="1.1" style="shape-rendering:geometricPrecision; text-rendering:geometricPrecision; image-rendering:optimizeQuality; fill-rule:evenodd; clip-rule:evenodd"
viewBox="0 0 2800 1800"
 xmlns:xlink="http://www.w3.org/1999/xlink"
 xmlns:xodm="http://www.corel.com/coreldraw/odm/2003">
 <defs>
  <style type="text/css">
   <![CDATA[
    .str1 {stroke:white;stroke-width:7.62;stroke-miterlimit:22.9256}
    .str0 {stroke:white;stroke-width:7.62;stroke-linejoin:bevel;stroke-miterlimit:22.9256}
    .fil7 {fill:none}
    .fil22 {fill:#1859A0}
    .fil11 {fill:#007FFF}
    .fil15 {fill:#EAEBF8}
    .fil1 {fill:#E2E4F5}
    .fil3 {fill:#A8AEE0}
    .fil5 {fill:#A4AADF}
    .fil18 {fill:#9098D8}
    .fil0 {fill:#007FFF;fill-rule:nonzero}
    .fil21 {fill:url(#id0)}
    .fil8 {fill:url(#id1)}
    .fil9 {fill:url(#id2)}
    .fil16 {fill:url(#id3)}
    .fil17 {fill:url(#id4)}
    .fil12 {fill:url(#id5)}
    .fil10 {fill:url(#id6)}
    .fil20 {fill:url(#id7)}
    .fil6 {fill:url(#id8)}
    .fil19 {fill:url(#id9)}
    .fil2 {fill:url(#id10)}
    .fil4 {fill:url(#id11)}
    .fil13 {fill:url(#id12)}
    .fil14 {fill:url(#id13)}
   ]]>
  </style>
  <linearGradient id="id0" gradientUnits="userSpaceOnUse" x1="2282.94" y1="452.37" x2="2423.9" y2="653.71">
   <stop offset="0" style="stop-opacity:1; stop-color:#007FFF"/>
   <stop offset="0.988235" style="stop-opacity:1; stop-color:#FEFEFE"/>
   <stop offset="1" style="stop-opacity:1; stop-color:#FEFEFE"/>
  </linearGradient>
  <linearGradient id="id1" gradientUnits="userSpaceOnUse" xlink:href="#id0" x1="495.57" y1="426.02" x2="706.27" y2="726.94">
  </linearGradient>
  <linearGradient id="id2" gradientUnits="objectBoundingBox" x1="5.8475%" y1="98.5233%" x2="94.1525%" y2="1.47671%">
   <stop offset="0" style="stop-opacity:1; stop-color:#007FFF"/>
   <stop offset="1" style="stop-opacity:1; stop-color:#FEFEFE"/>
  </linearGradient>
  <linearGradient id="id3" gradientUnits="userSpaceOnUse" xlink:href="#id2" x1="1475.73" y1="992.64" x2="1674.73" y2="708.43">
  </linearGradient>
  <linearGradient id="id4" gradientUnits="userSpaceOnUse" x1="1493.64" y1="635.28" x2="1773.22" y2="1065.8">
   <stop offset="0" style="stop-opacity:1; stop-color:#007FFF"/>
   <stop offset="0.811765" style="stop-opacity:1; stop-color:#FEFEFE"/>
   <stop offset="1" style="stop-opacity:1; stop-color:#007FFF"/>
  </linearGradient>
  <linearGradient id="id5" gradientUnits="userSpaceOnUse" xlink:href="#id0" x1="950.31" y1="377.2" x2="1196.54" y2="728.9">
  </linearGradient>
  <linearGradient id="id6" gradientUnits="userSpaceOnUse" x1="398.63" y1="755.52" x2="628.21" y2="1083.38">
   <stop offset="0" style="stop-opacity:1; stop-color:#007FFF"/>
   <stop offset="0.490196" style="stop-opacity:1; stop-color:#FEFEFE"/>
   <stop offset="1" style="stop-opacity:1; stop-color:#007FFF"/>
  </linearGradient>
  <linearGradient id="id7" gradientUnits="userSpaceOnUse" xlink:href="#id0" x1="1952.88" y1="459.42" x2="2083.98" y2="646.66">
  </linearGradient>
  <linearGradient id="id8" gradientUnits="objectBoundingBox" xlink:href="#id2" x1="0%" y1="90.9868%" x2="117.061%" y2="9.01323%">
  </linearGradient>
  <linearGradient id="id9" gradientUnits="userSpaceOnUse" xlink:href="#id0" x1="2102.46" y1="825.2" x2="2456.52" y2="1330.87">
  </linearGradient>
  <linearGradient id="id10" gradientUnits="userSpaceOnUse" xlink:href="#id2" x1="2102.46" y1="980.87" x2="2456.52" y2="475.2">
  </linearGradient>
  <linearGradient id="id11" gradientUnits="userSpaceOnUse" xlink:href="#id2" x1="1786.32" y1="1258.12" x2="1940.49" y2="1037.95">
  </linearGradient>
  <linearGradient id="id12" gradientUnits="userSpaceOnUse" xlink:href="#id2" x1="972.35" y1="1122.38" x2="1279.51" y2="683.7">
  </linearGradient>
  <linearGradient id="id13" gradientUnits="userSpaceOnUse" xlink:href="#id2" x1="1213.52" y1="1297.86" x2="1423.34" y2="998.2">
  </linearGradient>
 </defs>
 <g id="Слой_x0020_1">
  <metadata id="CorelCorpID_0Corel-Layer"/>
  <polygon class="fil0" points="2576.21,1277.64 2783.21,1277.64 2783.21,1327.64 2576.21,1327.64 "/>
  <polygon class="fil0" points="26.24,1397.64 2783.21,1397.64 2783.21,1447.64 26.24,1447.64 "/>
  <g id="_636048808">
   <polygon class="fil1" points="2343.29,601.43 2498.56,504.64 2215.69,854.63 2060.41,951.43 "/>
   <polygon class="fil2 str0" points="2343.29,601.43 2498.56,504.64 2215.69,854.63 2060.41,951.43 "/>
   <polygon class="fil3" points="1683.23,1196.43 1838.5,1099.63 2043.56,1099.63 1888.29,1196.43 "/>
   <polygon class="fil4 str0" points="1683.23,1196.43 1838.5,1099.63 2043.56,1099.63 1888.29,1196.43 "/>
   <polygon class="fil5" points="1993.29,1035.43 2148.56,938.63 2148.56,1204.64 1993.29,1301.43 "/>
   <polygon class="fil6 str0" points="1993.29,1035.43 2148.56,938.63 2148.56,1204.64 1993.29,1301.43 "/>
   <polygon class="fil7" points="558.28,601.43 713.55,504.64 818.56,504.64 663.28,601.43 "/>
   <polygon class="fil8" points="713.55,504.64 818.56,504.64 663.28,601.43 558.28,601.43 534.96,602.21 511.92,604.51 489.24,608.3 466.96,613.55 445.17,620.22 423.92,628.25 403.26,637.64 383.28,648.32 538.56,551.52 558.53,540.84 579.19,531.45 600.44,523.42 622.23,516.75 644.51,511.5 667.19,507.71 690.24,505.41 "/>
   <polygon class="fil5" points="663.28,601.43 818.56,504.64 818.56,609.64 663.28,706.44 "/>
   <polygon class="fil9 str0" points="663.28,601.43 818.56,504.64 818.56,609.64 663.28,706.44 "/>
   <polygon class="fil10" points="435.79,739.26 591.06,642.46 577.58,650.84 564.67,660.07 552.36,670.14 540.69,681.02 529.72,692.69 519.48,705.11 510.02,718.28 501.39,732.14 493.69,746.55 487.02,761.32 481.38,776.4 476.76,791.74 473.17,807.29 470.61,822.98 469.07,838.79 468.55,854.63 469.07,870.49 470.61,886.29 473.17,901.99 476.76,917.53 481.38,932.87 487.02,947.95 493.69,962.72 501.39,977.13 510.02,990.99 519.48,1004.16 529.72,1016.58 540.69,1028.25 552.36,1039.13 564.67,1049.2 577.58,1058.44 591.06,1066.81 605.04,1074.29 619.5,1080.86 634.38,1086.49 649.63,1091.15 665.22,1094.82 681.1,1097.48 697.23,1099.09 713.55,1099.63 558.28,1196.43 541.96,1195.89 525.83,1194.28 509.95,1191.62 494.36,1187.95 479.11,1183.29 464.23,1177.66 449.77,1171.09 435.79,1163.61 422.31,1155.23 409.4,1146 397.08,1135.93 385.41,1125.05 374.44,1113.38 364.2,1100.96 354.75,1087.79 346.11,1073.93 338.42,1059.52 331.75,1044.75 326.1,1029.67 321.49,1014.33 317.9,998.78 315.33,983.09 313.8,967.29 313.28,951.43 313.8,935.58 315.33,919.78 317.9,904.08 321.49,888.54 326.1,873.2 331.75,858.12 338.42,843.35 346.11,828.94 354.75,815.08 364.2,801.91 374.44,789.49 385.41,777.82 397.08,766.94 409.4,756.87 422.31,747.64 "/>
   <polygon class="fil3" points="558.28,1196.43 713.55,1099.63 1098.56,1099.63 943.28,1196.43 "/>
   <polygon class="fil11" points="558.28,1196.43 713.55,1099.63 1098.56,1099.63 943.28,1196.43 "/>
   <polygon class="fil3" points="768.29,601.43 923.56,504.64 1378.56,504.64 1223.28,601.43 "/>
   <polygon class="fil12 str0" points="768.29,601.43 923.56,504.64 1378.56,504.64 1223.28,601.43 "/>
   <polygon class="fil5" points="1223.28,601.43 1378.56,504.64 1378.56,609.64 1223.28,706.44 "/>
   <polygon class="fil9 str0" points="1223.28,601.43 1378.56,504.64 1378.56,609.64 1223.28,706.44 "/>
   <polygon class="fil5" points="1048.29,706.44 1203.56,609.64 1203.56,1099.63 1048.29,1196.43 "/>
   <polygon class="fil13 str0" points="1048.29,706.44 1203.56,609.64 1203.56,1099.63 1048.29,1196.43 "/>
   <polygon class="fil14" points="1048.29,1196.43 1203.56,1099.63 1588.56,1099.63 1609.94,1098.71 1630.87,1095.98 1651.27,1091.5 1671.03,1085.37 1690.09,1077.63 1534.82,1174.43 1515.76,1182.17 1495.99,1188.3 1475.6,1192.78 1454.67,1195.51 1433.29,1196.43 "/>
   <polygon class="fil15" points="1534.82,1174.43 1690.09,1077.63 1708.35,1068.37 1725.72,1057.64 1570.45,1154.44 1553.08,1165.17 "/>
   <polygon class="fil3" points="1322.6,898.93 1477.87,802.13 1827.86,802.13 1672.59,898.93 "/>
   <polygon class="fil16 str0" points="1322.6,898.93 1477.87,802.13 1827.86,802.13 1672.59,898.93 "/>
   <polygon class="fil7 str0" points="1328.29,601.43 1483.56,504.64 1588.56,504.64 1433.29,601.43 "/>
   <polygon class="fil17" points="1899.16,1015.99 1893.06,1027.23 1886.53,1038.28 1879.58,1049.11 1872.19,1059.72 1864.4,1070.08 1856.18,1080.21 1847.55,1090.05 1838.5,1099.63 1683.23,1196.43 1692.27,1186.85 1700.91,1177 1709.12,1166.88 1716.91,1156.52 1724.3,1145.91 1731.25,1135.08 1737.78,1124.03 1743.89,1112.79 1749.57,1101.35 1754.81,1089.74 1759.62,1077.98 1763.99,1066.06 1767.93,1053.99 1771.41,1041.82 1774.47,1029.53 1777.06,1017.14 1779.21,1004.67 1780.91,992.12 1782.16,979.51 1782.96,966.85 1783.28,954.15 1783.16,941.45 1782.56,928.72 1781.5,916 1779.98,903.3 1777.97,890.62 1775.51,877.99 1772.56,865.41 1769.14,852.89 1765.23,840.46 1760.85,828.12 1755.97,815.88 1744.9,792.07 1732.22,769.36 1718,747.85 1702.34,727.56 1685.33,708.58 1667.05,690.93 1647.58,674.7 1627,659.94 1605.43,646.69 1582.92,635.03 1559.59,625.01 1535.48,616.68 1510.72,610.09 1485.37,605.32 1459.53,602.42 1433.29,601.43 1328.29,601.43 1483.56,504.64 1588.56,504.64 1614.81,505.62 1640.65,508.53 1666,513.29 1690.76,519.88 1714.86,528.21 1738.2,538.23 1760.7,549.89 1782.28,563.14 1802.85,577.91 1822.32,594.13 1840.6,611.78 1857.61,630.76 1873.27,651.05 1887.49,672.56 1900.17,695.27 1911.24,719.08 1916.12,731.32 1920.51,743.66 1924.41,756.09 1927.83,768.61 1930.78,781.19 1933.25,793.82 1935.25,806.5 1936.78,819.2 1937.84,831.92 1938.43,844.65 1938.56,857.35 1938.23,870.05 1937.43,882.71 1936.18,895.32 1934.49,907.87 1932.34,920.34 1929.74,932.73 1926.69,945.02 1923.2,957.2 1919.27,969.26 1914.89,981.18 1910.08,992.95 1904.84,1004.55 "/>
   <polygon class="fil18" points="2060.41,951.43 2215.69,854.63 2498.56,1204.64 2343.29,1301.43 "/>
   <polygon class="fil19 str0" points="2060.41,951.43 2215.69,854.63 2498.56,1204.64 2343.29,1301.43 "/>
   <polygon class="fil3" points="1888.29,601.43 2043.56,504.64 2148.56,504.64 1993.29,601.43 "/>
   <polygon class="fil20 str0" points="1888.29,601.43 2043.56,504.64 2148.56,504.64 1993.29,601.43 "/>
   <polygon class="fil5" points="1993.29,601.43 2148.56,504.64 2148.56,770.65 1993.29,867.44 "/>
   <polygon class="fil6 str0" points="1993.29,601.43 2148.56,504.64 2148.56,770.65 1993.29,867.44 "/>
   <polygon class="fil3" points="2208.28,601.43 2363.55,504.64 2498.56,504.64 2343.29,601.43 "/>
   <polygon class="fil21 str0" points="2208.28,601.43 2363.55,504.64 2498.56,504.64 2343.29,601.43 "/>
   <path class="fil22 str1" d="M2343.29 601.43l-282.88 350 282.88 350 -135.01 0 -214.99 -266.01 0 266.01 -1435.01 0c-125.04,0 -240.58,-66.71 -303.1,-175 -62.53,-108.29 -62.53,-241.71 0,-350 62.52,-108.29 178.06,-175 303.1,-175l105 0 0 105 -105 0c-87.53,0 -168.41,46.7 -212.17,122.5 -43.77,75.81 -43.77,169.2 0,245 43.76,75.81 124.64,122.5 212.17,122.5l385 0 0 -490 -175 0 0 -105 455.01 0 0 105 -175.01 0 0 490 385.01 0c115.08,0 214.65,-80.09 239.3,-192.5l-350 0 0 -105 350 0c-24.65,-112.4 -124.22,-192.5 -239.3,-192.5l-105 0 0 -105 105 0c140.92,0 268.1,84.53 322.68,214.45 54.58,129.93 25.91,279.91 -72.73,380.55l205.05 0 0 -595 105 0 0 266.02 214.99 -266.02 135.01 0z"/>
  </g>
  <polygon class="fil0" points="26.24,1507.64 2783.21,1507.64 2783.21,1556.52 26.24,1556.52 "/>
  <polygon class="fil0" points="2464.05,592.64 2783.21,592.64 2783.21,642.64 2464.05,642.64 "/>
  <polygon class="fil0" points="2531.93,477.64 2783.21,477.64 2783.21,527.64 2531.93,527.64 "/>
  <polygon class="fil0" points="26.24,357.64 2783.21,357.64 2783.21,407.64 26.24,407.64 "/>
  <polygon class="fil0" points="2783.21,297.64 26.24,297.64 26.24,248.69 2783.21,248.69 "/>
  <polygon class="fil0" points="2523.09,1157.64 2783.21,1157.64 2783.21,1207.64 2523.09,1207.64 "/>
  <polygon class="fil0" points="26.24,1277.64 341.84,1277.64 341.84,1327.64 26.24,1327.64 "/>
  <polygon class="fil0" points="26.24,1162.64 256.26,1162.64 256.26,1212.64 26.24,1212.64 "/>
  <polygon class="fil0" points="26.24,1047.64 200.18,1047.64 200.18,1097.64 26.24,1097.64 "/>
  <polygon class="fil0" points="26.24,932.64 160.42,932.64 160.42,982.64 26.24,982.64 "/>
  <polygon class="fil0" points="26.24,812.64 191.32,812.64 191.32,862.64 26.24,862.64 "/>
  <polygon class="fil0" points="26.24,697.64 247.4,697.64 247.4,747.64 26.24,747.64 "/>
  <polygon class="fil0" points="26.24,587.64 359.56,587.64 359.56,637.64 26.24,637.64 "/>
  <polygon class="fil0" points="26.24,472.64 524.84,472.64 524.84,522.64 26.24,522.64 "/>
  <polygon class="fil0" points="2401.44,697.85 2783.21,697.85 2783.21,747.85 2401.44,747.85 "/>
  <polygon class="fil0" points="2295.8,812.57 2783.21,812.57 2783.21,862.57 2295.8,862.57 "/>
  <polygon class="fil0" points="2381.35,932.46 2783.21,932.46 2783.21,982.46 2381.35,982.46 "/>
  <polygon class="fil0" points="2449.35,1047.37 2783.21,1047.37 2783.21,1097.37 2449.35,1097.37 "/>
  <polygon class="fil0" points="2783.21,187.64 26.24,187.64 26.24,138.69 2783.21,138.69 "/>
  <polygon class="fil0" points="2783.21,77.64 26.24,77.64 26.24,28.69 2783.21,28.69 "/>
  <polygon class="fil0" points="26.24,1617.64 2783.21,1617.64 2783.21,1666.52 26.24,1666.52 "/>
  <polygon class="fil0" points="26.24,1727.64 2783.21,1727.64 2783.21,1776.52 26.24,1776.52 "/>
 </g>
</svg>
