<svg xmlns="http://www.w3.org/2000/svg" xmlns:xlink="http://www.w3.org/1999/xlink" fill-rule="evenodd" clip-rule="evenodd" image-rendering="optimizeQuality" shape-rendering="geometricPrecision" text-rendering="geometricPrecision" viewBox="0 0 3000 1400">
	<defs>
		<style>
			.str0 {
			stroke: #fff;
			stroke-width: 7.62;
			stroke-linejoin: bevel;
			stroke-miterlimit: 22.9256
			}
			.fil7 {
			fill: none
			}
			.fil5 {
			fill: #a4aadf
			}
			.fil3 {
			fill: #a8aee0
			}
			.fil0 {
			fill: #007fff;
			fill-rule: nonzero
			}
		</style>
		<linearGradient id="id0" x1="2222" x2="2576" y1="625" y2="1130" gradientUnits="userSpaceOnUse">
			<stop offset="0" stop-color="#007fff" />
			<stop offset=".988" stop-color="#fefefe" />
			<stop offset="1" stop-color="#fefefe" />
		</linearGradient>
		<linearGradient id="id1" x1="2222" x2="2576" y1="780" y2="275" gradientUnits="userSpaceOnUse">
			<stop offset="0" stop-color="#007fff" />
			<stop offset="1" stop-color="#fefefe" />
		</linearGradient>
		<linearGradient id="id2" x1="772.66" x2="949.17" y1="480.19" y2="330.92" gradientUnits="userSpaceOnUse" xlink:href="#id1" />
		<linearGradient id="id3" x1="2072" x2="2203" y1="259" y2="446" gradientUnits="userSpaceOnUse" xlink:href="#id0" />
		<linearGradient id="id4" x1="2402" x2="2543" y1="252" y2="453" gradientUnits="userSpaceOnUse" xlink:href="#id0" />
		<linearGradient id="id5" x1="1070" x2="1316" y1="177" y2="528" gradientUnits="userSpaceOnUse" xlink:href="#id0" />
		<linearGradient id="id6" x1="1613" x2="1893" y1="435" y2="865" gradientUnits="userSpaceOnUse">
			<stop offset="0" stop-color="#007fff" />
			<stop offset=".812" stop-color="#fefefe" />
			<stop offset="1" stop-color="#007fff" />
		</linearGradient>
		<linearGradient id="id7" x1="615" x2="826" y1="226" y2="526" gradientUnits="userSpaceOnUse" xlink:href="#id0" />
		<linearGradient id="id8" x1="1906" x2="2060" y1="1058" y2="837" gradientUnits="userSpaceOnUse" xlink:href="#id1" />
		<linearGradient id="id9" x1="1332.66" x2="1509.17" y1="480.19" y2="330.92" gradientUnits="userSpaceOnUse" xlink:href="#id1" />
		<linearGradient id="id10" x1="1595" x2="1794" y1="792" y2="508" gradientUnits="userSpaceOnUse" xlink:href="#id1" />
		<linearGradient id="id11" x1="518" x2="748" y1="555" y2="883" gradientUnits="userSpaceOnUse">
			<stop offset="0" stop-color="#007fff" />
			<stop offset=".49" stop-color="#fefefe" />
			<stop offset="1" stop-color="#007fff" />
		</linearGradient>
		<linearGradient id="id12" x1="1092" x2="1399" y1="922" y2="483" gradientUnits="userSpaceOnUse" xlink:href="#id1" />
		<linearGradient id="id13" x1="2079.89" x2="2328.44" y1="957.29" y2="882.8" gradientUnits="userSpaceOnUse" xlink:href="#id1" />
		<linearGradient id="id14" x1="2079.89" x2="2328.44" y1="523.31" y2="448.82" gradientUnits="userSpaceOnUse" xlink:href="#id1" />
		<linearGradient id="id15" x1="1333" x2="1543" y1="1097" y2="798" gradientUnits="userSpaceOnUse" xlink:href="#id1" />
	</defs>
	<g id="Слой_x0020_1">
		<path d="M2821.52 1077.64h154.76v50h-154.76zM26.17 1197.64h2950.11v50H26.17z" class="fil0" />
		<g id="_794681928">
			<path fill="#e2e4f5" d="M2463.29 401.43l155.27-96.79-282.87 349.99-155.28 96.8z" />
			<path class="str0" fill="url(#id1)" d="M2463.29 401.43l155.27-96.79-282.87 349.99-155.28 96.8z" />
			<path d="M1803.23 996.43l155.27-96.8h205.06l-155.27 96.8z" class="fil3" />
			<path class="str0" fill="url(#id8)" d="M1803.23 996.43l155.27-96.8h205.06l-155.27 96.8z" />
			<path d="M2113.29 835.43l155.27-96.8v266.01l-155.27 96.79z" class="fil5" />
			<path class="str0" fill="url(#id13)" d="M2113.29 835.43l155.27-96.8v266.01l-155.27 96.79z" />
			<path d="M678.28 401.43l155.27-96.79h105.01l-155.28 96.79z" class="fil7" />
			<path fill="url(#id7)" d="M833.55 304.64h105.01l-155.28 96.79h-105l-23.32.78-23.04 2.3-22.68 3.79-22.28 5.25-21.79 6.67-21.25 8.03-20.66 9.39-19.98 10.68 155.28-96.8 19.97-10.68 20.66-9.39 21.25-8.03 21.79-6.67 22.28-5.25 22.68-3.79 23.05-2.3z" />
			<path d="M783.28 401.43l155.28-96.79v105l-155.28 96.8z" class="fil5" />
			<path class="str0" fill="url(#id2)" d="M783.28 401.43l155.28-96.79v105l-155.28 96.8z" />
			<path fill="url(#id11)" d="M555.79 539.26l155.27-96.8-13.48 8.38-12.91 9.23-12.31 10.07-11.67 10.88-10.97 11.67-10.24 12.42-9.46 13.17-8.63 13.86-7.7 14.41-6.67 14.77-5.64 15.08-4.62 15.34-3.59 15.55-2.56 15.69-1.54 15.81-.52 15.84.52 15.86 1.54 15.8 2.56 15.7 3.59 15.54 4.62 15.34 5.64 15.08 6.67 14.77 7.7 14.41 8.63 13.86 9.46 13.17 10.24 12.42 10.97 11.67 11.67 10.88 12.31 10.07 12.91 9.24 13.48 8.37 13.98 7.48 14.46 6.57 14.88 5.63 15.25 4.66 15.59 3.67 15.88 2.66 16.13 1.61 16.32.54-155.27 96.8-16.32-.54-16.13-1.61-15.88-2.66-15.59-3.67-15.25-4.66-14.88-5.63-14.46-6.57-13.98-7.48-13.48-8.38L529.4 946l-12.32-10.07-11.67-10.88-10.97-11.67-10.24-12.42-9.45-13.17-8.64-13.86-7.69-14.41-6.67-14.77-5.65-15.08-4.61-15.34-3.59-15.55-2.57-15.69-1.53-15.8-.52-15.86.52-15.85 1.53-15.8 2.57-15.7 3.59-15.54 4.61-15.34 5.65-15.08 6.67-14.77 7.69-14.41 8.64-13.86 9.45-13.17 10.24-12.42 10.97-11.67 11.67-10.88 12.32-10.07 12.91-9.23z" />
			<path d="M678.28 996.43l155.27-96.8h385.01l-155.28 96.8z" class="fil3" />
			<path fill="#007fff" d="M678.28 996.43l155.27-96.8h385.01l-155.28 96.8z" />
			<path d="M888.29 401.43l155.27-96.79h455l-155.28 96.79z" class="fil3" />
			<path class="str0" fill="url(#id5)" d="M888.29 401.43l155.27-96.79h455l-155.28 96.79z" />
			<path d="M1343.28 401.43l155.28-96.79v105l-155.28 96.8z" class="fil5" />
			<path class="str0" fill="url(#id9)" d="M1343.28 401.43l155.28-96.79v105l-155.28 96.8z" />
			<path d="M1168.29 506.44l155.27-96.8v489.99l-155.27 96.8z" class="fil5" />
			<path class="str0" fill="url(#id12)" d="M1168.29 506.44l155.27-96.8v489.99l-155.27 96.8z" />
			<path fill="url(#id15)" d="M1168.29 996.43l155.27-96.8h385l21.38-.92 20.93-2.73 20.4-4.48 19.76-6.13 19.06-7.74-155.27 96.8-19.06 7.74-19.77 6.13-20.39 4.48-20.93 2.73-21.38.92z" />
			<path fill="#eaebf8" d="M1654.82 974.43l155.27-96.8 18.26-9.26 17.37-10.73-155.27 96.8-17.37 10.73z" />
			<path d="M1442.6 698.93l155.27-96.8h349.99l-155.27 96.8z" class="fil3" />
			<path class="str0" fill="url(#id10)" d="M1442.6 698.93l155.27-96.8h349.99l-155.27 96.8z" />
			<path d="M1448.29 401.43l155.27-96.79h105l-155.27 96.79z" class="fil7 str0" />
			<path fill="url(#id6)" d="M2019.16 815.99l-6.1 11.24-6.53 11.05-6.95 10.83-7.39 10.61-7.79 10.36-8.22 10.13-8.63 9.84-9.05 9.58-155.27 96.8 9.04-9.58 8.64-9.85 8.21-10.12 7.79-10.36 7.39-10.61 6.95-10.83 6.53-11.05 6.11-11.24 5.68-11.44 5.24-11.61 4.81-11.76 4.37-11.92 3.94-12.07 3.48-12.17 3.06-12.29 2.59-12.39 2.15-12.47 1.7-12.55 1.25-12.61.8-12.66.32-12.7-.12-12.7-.6-12.73-1.06-12.72-1.52-12.7-2.01-12.68-2.46-12.63-2.95-12.58-3.42-12.52-3.91-12.43-4.38-12.34-4.88-12.24-11.07-23.81-12.68-22.71-14.22-21.51-15.66-20.29-17.01-18.98-18.28-17.65-19.47-16.23-20.58-14.76-21.57-13.25-22.51-11.66-23.33-10.02-24.11-8.33-24.76-6.59-25.35-4.77-25.84-2.9-26.24-.99h-105l155.27-96.79h105l26.25.98 25.84 2.91 25.35 4.76 24.76 6.59 24.1 8.33 23.34 10.02 22.5 11.66 21.58 13.25 20.57 14.77 19.47 16.22 18.28 17.65 17.01 18.98 15.66 20.29 14.22 21.51 12.68 22.71 11.07 23.81 4.88 12.24 4.39 12.34 3.9 12.43 3.42 12.52 2.95 12.58 2.47 12.63 2 12.68 1.53 12.7 1.06 12.72.59 12.73.13 12.7-.33 12.7-.8 12.66-1.25 12.61-1.69 12.55-2.15 12.47-2.6 12.39-3.05 12.29-3.49 12.18-3.93 12.06-4.38 11.92-4.81 11.77-5.24 11.6z" />
			<path fill="#9098d8" d="M2180.41 751.43l155.28-96.8 282.87 350.01-155.27 96.79z" />
			<path class="str0" fill="url(#id0)" d="M2180.41 751.43l155.28-96.8 282.87 350.01-155.27 96.79z" />
			<path d="M2008.29 401.43l155.27-96.79h105l-155.27 96.79z" class="fil3" />
			<path class="str0" fill="url(#id3)" d="M2008.29 401.43l155.27-96.79h105l-155.27 96.79z" />
			<path d="M2113.29 401.43l155.27-96.79v266.01l-155.27 96.79z" class="fil5" />
			<path class="str0" fill="url(#id14)" d="M2113.29 401.43l155.27-96.79v266.01l-155.27 96.79z" />
			<path d="M2328.28 401.43l155.27-96.79h135.01l-155.27 96.79z" class="fil3" />
			<path class="str0" fill="url(#id4)" d="M2328.28 401.43l155.27-96.79h135.01l-155.27 96.79z" />
			<path fill="#1859a0" stroke="#fff" stroke-miterlimit="22.926" stroke-width="7.62" d="M2463.29 401.43l-282.88 350 282.88 350h-135.01l-214.99-266.01v266.01H678.28c-125.04 0-240.58-66.71-303.1-175-62.53-108.29-62.53-241.71 0-350 62.52-108.29 178.06-175 303.1-175h105v105h-105c-87.53 0-168.41 46.7-212.17 122.5-43.77 75.81-43.77 169.2 0 245 43.76 75.81 124.64 122.5 212.17 122.5h385v-490h-175v-105h455.01v105h-175.01v490h385.01c115.08 0 214.65-80.09 239.3-192.5h-350v-105h350c-24.65-112.4-124.22-192.5-239.3-192.5h-105v-105h105c140.92 0 268.1 84.53 322.68 214.45 54.58 129.93 25.91 279.91-72.73 380.55h205.05v-595h105v266.02l214.99-266.02h135.01z" />
		</g>
		<path d="M26.17 1317.64h2950.11v48.88H26.17zM2663 392.64h313.28v50H2663zM2752.27 277.64h224.01v50h-224.01zM26.17 157.64h2950.11v50H26.17zM2976.28 77.64H26.17V28.69h2950.11zM2729.82 957.64h246.46v50h-246.46zM26.17 1077.64h267.69v50H26.17zM26.17 962.64h208.59v50H26.17zM26.17 847.64h163.28v50H26.17zM26.17 732.64h143.58v50H26.17zM26.17 612.64h163.28v50H26.17zM26.17 497.64h208.59v50H26.17zM26.17 387.64h303.15v50H26.17zM26.17 272.64H494.8v50H26.17zM2567.77 497.85h408.51v50h-408.51zM2498.31 612.57h477.97v50h-477.97zM2546.27 732.46h430.01v50h-430.01zM2619.03 847.37h357.25v50h-357.25z" class="fil0" />
	</g>
</svg>
