<?xml version="1.0" encoding="UTF-8"?>
<!DOCTYPE svg PUBLIC "-//W3C//DTD SVG 1.1//EN" "http://www.w3.org/Graphics/SVG/1.1/DTD/svg11.dtd">
<!-- Creator: CorelDRAW 2020 -->
<svg xmlns="http://www.w3.org/2000/svg" xml:space="preserve" width="30mm" height="14mm" version="1.1" style="shape-rendering:geometricPrecision; text-rendering:geometricPrecision; image-rendering:optimizeQuality; fill-rule:evenodd; clip-rule:evenodd"
viewBox="0 0 3000 1400"
 xmlns:xlink="http://www.w3.org/1999/xlink"
 xmlns:xodm="http://www.corel.com/coreldraw/odm/2003">
 <defs>
  <style type="text/css">
   <![CDATA[
    .str1 {stroke:white;stroke-width:7.62;stroke-miterlimit:22.9256}
    .str0 {stroke:white;stroke-width:7.62;stroke-linejoin:bevel;stroke-miterlimit:22.9256}
    .fil7 {fill:none}
    .fil11 {fill:#007FFF}
    .fil24 {fill:#1859A0}
    .fil19 {fill:#9098D8}
    .fil5 {fill:#A4AADF}
    .fil3 {fill:#A8AEE0}
    .fil1 {fill:#E2E4F5}
    .fil16 {fill:#EAEBF8}
    .fil0 {fill:#007FFF;fill-rule:nonzero}
    .fil20 {fill:url(#id0)}
    .fil2 {fill:url(#id1)}
    .fil9 {fill:url(#id2)}
    .fil21 {fill:url(#id3)}
    .fil23 {fill:url(#id4)}
    .fil12 {fill:url(#id5)}
    .fil18 {fill:url(#id6)}
    .fil8 {fill:url(#id7)}
    .fil4 {fill:url(#id8)}
    .fil13 {fill:url(#id9)}
    .fil17 {fill:url(#id10)}
    .fil10 {fill:url(#id11)}
    .fil14 {fill:url(#id12)}
    .fil6 {fill:url(#id13)}
    .fil22 {fill:url(#id14)}
    .fil15 {fill:url(#id15)}
   ]]>
  </style>
  <linearGradient id="id0" gradientUnits="userSpaceOnUse" x1="2222" y1="625" x2="2576" y2="1130">
   <stop offset="0" style="stop-opacity:1; stop-color:#007FFF"/>
   <stop offset="0.988235" style="stop-opacity:1; stop-color:#FEFEFE"/>
   <stop offset="1" style="stop-opacity:1; stop-color:#FEFEFE"/>
  </linearGradient>
  <linearGradient id="id1" gradientUnits="userSpaceOnUse" x1="2222" y1="780" x2="2576" y2="275">
   <stop offset="0" style="stop-opacity:1; stop-color:#007FFF"/>
   <stop offset="1" style="stop-opacity:1; stop-color:#FEFEFE"/>
  </linearGradient>
  <linearGradient id="id2" gradientUnits="userSpaceOnUse" xlink:href="#id1" x1="772.66" y1="480.19" x2="949.17" y2="330.92">
  </linearGradient>
  <linearGradient id="id3" gradientUnits="userSpaceOnUse" xlink:href="#id0" x1="2072" y1="259" x2="2203" y2="446">
  </linearGradient>
  <linearGradient id="id4" gradientUnits="userSpaceOnUse" xlink:href="#id0" x1="2402" y1="252" x2="2543" y2="453">
  </linearGradient>
  <linearGradient id="id5" gradientUnits="userSpaceOnUse" xlink:href="#id0" x1="1070" y1="177" x2="1316" y2="528">
  </linearGradient>
  <linearGradient id="id6" gradientUnits="userSpaceOnUse" x1="1613" y1="435" x2="1893" y2="865">
   <stop offset="0" style="stop-opacity:1; stop-color:#007FFF"/>
   <stop offset="0.811765" style="stop-opacity:1; stop-color:#FEFEFE"/>
   <stop offset="1" style="stop-opacity:1; stop-color:#007FFF"/>
  </linearGradient>
  <linearGradient id="id7" gradientUnits="userSpaceOnUse" xlink:href="#id0" x1="615" y1="226" x2="826" y2="526">
  </linearGradient>
  <linearGradient id="id8" gradientUnits="userSpaceOnUse" xlink:href="#id1" x1="1906" y1="1058" x2="2060" y2="837">
  </linearGradient>
  <linearGradient id="id9" gradientUnits="userSpaceOnUse" xlink:href="#id1" x1="1332.66" y1="480.19" x2="1509.17" y2="330.92">
  </linearGradient>
  <linearGradient id="id10" gradientUnits="userSpaceOnUse" xlink:href="#id1" x1="1595" y1="792" x2="1794" y2="508">
  </linearGradient>
  <linearGradient id="id11" gradientUnits="userSpaceOnUse" x1="518" y1="555" x2="748" y2="883">
   <stop offset="0" style="stop-opacity:1; stop-color:#007FFF"/>
   <stop offset="0.490196" style="stop-opacity:1; stop-color:#FEFEFE"/>
   <stop offset="1" style="stop-opacity:1; stop-color:#007FFF"/>
  </linearGradient>
  <linearGradient id="id12" gradientUnits="userSpaceOnUse" xlink:href="#id1" x1="1092" y1="922" x2="1399" y2="483">
  </linearGradient>
  <linearGradient id="id13" gradientUnits="userSpaceOnUse" xlink:href="#id1" x1="2079.89" y1="957.29" x2="2328.44" y2="882.8">
  </linearGradient>
  <linearGradient id="id14" gradientUnits="userSpaceOnUse" xlink:href="#id1" x1="2079.89" y1="523.31" x2="2328.44" y2="448.82">
  </linearGradient>
  <linearGradient id="id15" gradientUnits="userSpaceOnUse" xlink:href="#id1" x1="1333" y1="1097" x2="1543" y2="798">
  </linearGradient>
 </defs>
 <g id="Слой_x0020_1">
  <metadata id="CorelCorpID_0Corel-Layer"/>
  <polygon class="fil0" points="2821.52,1077.64 2976.28,1077.64 2976.28,1127.64 2821.52,1127.64 "/>
  <polygon class="fil0" points="26.17,1197.64 2976.28,1197.64 2976.28,1247.64 26.17,1247.64 "/>
  <g id="_794681928">
   <polygon class="fil1" points="2463.29,401.43 2618.56,304.64 2335.69,654.63 2180.41,751.43 "/>
   <polygon class="fil2 str0" points="2463.29,401.43 2618.56,304.64 2335.69,654.63 2180.41,751.43 "/>
   <polygon class="fil3" points="1803.23,996.43 1958.5,899.63 2163.56,899.63 2008.29,996.43 "/>
   <polygon class="fil4 str0" points="1803.23,996.43 1958.5,899.63 2163.56,899.63 2008.29,996.43 "/>
   <polygon class="fil5" points="2113.29,835.43 2268.56,738.63 2268.56,1004.64 2113.29,1101.43 "/>
   <polygon class="fil6 str0" points="2113.29,835.43 2268.56,738.63 2268.56,1004.64 2113.29,1101.43 "/>
   <polygon class="fil7" points="678.28,401.43 833.55,304.64 938.56,304.64 783.28,401.43 "/>
   <polygon class="fil8" points="833.55,304.64 938.56,304.64 783.28,401.43 678.28,401.43 654.96,402.21 631.92,404.51 609.24,408.3 586.96,413.55 565.17,420.22 543.92,428.25 523.26,437.64 503.28,448.32 658.56,351.52 678.53,340.84 699.19,331.45 720.44,323.42 742.23,316.75 764.51,311.5 787.19,307.71 810.24,305.41 "/>
   <polygon class="fil5" points="783.28,401.43 938.56,304.64 938.56,409.64 783.28,506.44 "/>
   <polygon class="fil9 str0" points="783.28,401.43 938.56,304.64 938.56,409.64 783.28,506.44 "/>
   <polygon class="fil10" points="555.79,539.26 711.06,442.46 697.58,450.84 684.67,460.07 672.36,470.14 660.69,481.02 649.72,492.69 639.48,505.11 630.02,518.28 621.39,532.14 613.69,546.55 607.02,561.32 601.38,576.4 596.76,591.74 593.17,607.29 590.61,622.98 589.07,638.79 588.55,654.63 589.07,670.49 590.61,686.29 593.17,701.99 596.76,717.53 601.38,732.87 607.02,747.95 613.69,762.72 621.39,777.13 630.02,790.99 639.48,804.16 649.72,816.58 660.69,828.25 672.36,839.13 684.67,849.2 697.58,858.44 711.06,866.81 725.04,874.29 739.5,880.86 754.38,886.49 769.63,891.15 785.22,894.82 801.1,897.48 817.23,899.09 833.55,899.63 678.28,996.43 661.96,995.89 645.83,994.28 629.95,991.62 614.36,987.95 599.11,983.29 584.23,977.66 569.77,971.09 555.79,963.61 542.31,955.23 529.4,946 517.08,935.93 505.41,925.05 494.44,913.38 484.2,900.96 474.75,887.79 466.11,873.93 458.42,859.52 451.75,844.75 446.1,829.67 441.49,814.33 437.9,798.78 435.33,783.09 433.8,767.29 433.28,751.43 433.8,735.58 435.33,719.78 437.9,704.08 441.49,688.54 446.1,673.2 451.75,658.12 458.42,643.35 466.11,628.94 474.75,615.08 484.2,601.91 494.44,589.49 505.41,577.82 517.08,566.94 529.4,556.87 542.31,547.64 "/>
   <polygon class="fil3" points="678.28,996.43 833.55,899.63 1218.56,899.63 1063.28,996.43 "/>
   <polygon class="fil11" points="678.28,996.43 833.55,899.63 1218.56,899.63 1063.28,996.43 "/>
   <polygon class="fil3" points="888.29,401.43 1043.56,304.64 1498.56,304.64 1343.28,401.43 "/>
   <polygon class="fil12 str0" points="888.29,401.43 1043.56,304.64 1498.56,304.64 1343.28,401.43 "/>
   <polygon class="fil5" points="1343.28,401.43 1498.56,304.64 1498.56,409.64 1343.28,506.44 "/>
   <polygon class="fil13 str0" points="1343.28,401.43 1498.56,304.64 1498.56,409.64 1343.28,506.44 "/>
   <polygon class="fil5" points="1168.29,506.44 1323.56,409.64 1323.56,899.63 1168.29,996.43 "/>
   <polygon class="fil14 str0" points="1168.29,506.44 1323.56,409.64 1323.56,899.63 1168.29,996.43 "/>
   <polygon class="fil15" points="1168.29,996.43 1323.56,899.63 1708.56,899.63 1729.94,898.71 1750.87,895.98 1771.27,891.5 1791.03,885.37 1810.09,877.63 1654.82,974.43 1635.76,982.17 1615.99,988.3 1595.6,992.78 1574.67,995.51 1553.29,996.43 "/>
   <polygon class="fil16" points="1654.82,974.43 1810.09,877.63 1828.35,868.37 1845.72,857.64 1690.45,954.44 1673.08,965.17 "/>
   <polygon class="fil3" points="1442.6,698.93 1597.87,602.13 1947.86,602.13 1792.59,698.93 "/>
   <polygon class="fil17 str0" points="1442.6,698.93 1597.87,602.13 1947.86,602.13 1792.59,698.93 "/>
   <polygon class="fil7 str0" points="1448.29,401.43 1603.56,304.64 1708.56,304.64 1553.29,401.43 "/>
   <polygon class="fil18" points="2019.16,815.99 2013.06,827.23 2006.53,838.28 1999.58,849.11 1992.19,859.72 1984.4,870.08 1976.18,880.21 1967.55,890.05 1958.5,899.63 1803.23,996.43 1812.27,986.85 1820.91,977 1829.12,966.88 1836.91,956.52 1844.3,945.91 1851.25,935.08 1857.78,924.03 1863.89,912.79 1869.57,901.35 1874.81,889.74 1879.62,877.98 1883.99,866.06 1887.93,853.99 1891.41,841.82 1894.47,829.53 1897.06,817.14 1899.21,804.67 1900.91,792.12 1902.16,779.51 1902.96,766.85 1903.28,754.15 1903.16,741.45 1902.56,728.72 1901.5,716 1899.98,703.3 1897.97,690.62 1895.51,677.99 1892.56,665.41 1889.14,652.89 1885.23,640.46 1880.85,628.12 1875.97,615.88 1864.9,592.07 1852.22,569.36 1838,547.85 1822.34,527.56 1805.33,508.58 1787.05,490.93 1767.58,474.7 1747,459.94 1725.43,446.69 1702.92,435.03 1679.59,425.01 1655.48,416.68 1630.72,410.09 1605.37,405.32 1579.53,402.42 1553.29,401.43 1448.29,401.43 1603.56,304.64 1708.56,304.64 1734.81,305.62 1760.65,308.53 1786,313.29 1810.76,319.88 1834.86,328.21 1858.2,338.23 1880.7,349.89 1902.28,363.14 1922.85,377.91 1942.32,394.13 1960.6,411.78 1977.61,430.76 1993.27,451.05 2007.49,472.56 2020.17,495.27 2031.24,519.08 2036.12,531.32 2040.51,543.66 2044.41,556.09 2047.83,568.61 2050.78,581.19 2053.25,593.82 2055.25,606.5 2056.78,619.2 2057.84,631.92 2058.43,644.65 2058.56,657.35 2058.23,670.05 2057.43,682.71 2056.18,695.32 2054.49,707.87 2052.34,720.34 2049.74,732.73 2046.69,745.02 2043.2,757.2 2039.27,769.26 2034.89,781.18 2030.08,792.95 2024.84,804.55 "/>
   <polygon class="fil19" points="2180.41,751.43 2335.69,654.63 2618.56,1004.64 2463.29,1101.43 "/>
   <polygon class="fil20 str0" points="2180.41,751.43 2335.69,654.63 2618.56,1004.64 2463.29,1101.43 "/>
   <polygon class="fil3" points="2008.29,401.43 2163.56,304.64 2268.56,304.64 2113.29,401.43 "/>
   <polygon class="fil21 str0" points="2008.29,401.43 2163.56,304.64 2268.56,304.64 2113.29,401.43 "/>
   <polygon class="fil5" points="2113.29,401.43 2268.56,304.64 2268.56,570.65 2113.29,667.44 "/>
   <polygon class="fil22 str0" points="2113.29,401.43 2268.56,304.64 2268.56,570.65 2113.29,667.44 "/>
   <polygon class="fil3" points="2328.28,401.43 2483.55,304.64 2618.56,304.64 2463.29,401.43 "/>
   <polygon class="fil23 str0" points="2328.28,401.43 2483.55,304.64 2618.56,304.64 2463.29,401.43 "/>
   <path class="fil24 str1" d="M2463.29 401.43l-282.88 350 282.88 350 -135.01 0 -214.99 -266.01 0 266.01 -1435.01 0c-125.04,0 -240.58,-66.71 -303.1,-175 -62.53,-108.29 -62.53,-241.71 0,-350 62.52,-108.29 178.06,-175 303.1,-175l105 0 0 105 -105 0c-87.53,0 -168.41,46.7 -212.17,122.5 -43.77,75.81 -43.77,169.2 0,245 43.76,75.81 124.64,122.5 212.17,122.5l385 0 0 -490 -175 0 0 -105 455.01 0 0 105 -175.01 0 0 490 385.01 0c115.08,0 214.65,-80.09 239.3,-192.5l-350 0 0 -105 350 0c-24.65,-112.4 -124.22,-192.5 -239.3,-192.5l-105 0 0 -105 105 0c140.92,0 268.1,84.53 322.68,214.45 54.58,129.93 25.91,279.91 -72.73,380.55l205.05 0 0 -595 105 0 0 266.02 214.99 -266.02 135.01 0z"/>
  </g>
  <polygon class="fil0" points="26.17,1317.64 2976.28,1317.64 2976.28,1366.52 26.17,1366.52 "/>
  <polygon class="fil0" points="2663,392.64 2976.28,392.64 2976.28,442.64 2663,442.64 "/>
  <polygon class="fil0" points="2752.27,277.64 2976.28,277.64 2976.28,327.64 2752.27,327.64 "/>
  <polygon class="fil0" points="26.17,157.64 2976.28,157.64 2976.28,207.64 26.17,207.64 "/>
  <polygon class="fil0" points="2976.28,77.64 26.17,77.64 26.17,28.69 2976.28,28.69 "/>
  <polygon class="fil0" points="2729.82,957.64 2976.28,957.64 2976.28,1007.64 2729.82,1007.64 "/>
  <polygon class="fil0" points="26.17,1077.64 293.86,1077.64 293.86,1127.64 26.17,1127.64 "/>
  <polygon class="fil0" points="26.17,962.64 234.76,962.64 234.76,1012.64 26.17,1012.64 "/>
  <polygon class="fil0" points="26.17,847.64 189.45,847.64 189.45,897.64 26.17,897.64 "/>
  <polygon class="fil0" points="26.17,732.64 169.75,732.64 169.75,782.64 26.17,782.64 "/>
  <polygon class="fil0" points="26.17,612.64 189.45,612.64 189.45,662.64 26.17,662.64 "/>
  <polygon class="fil0" points="26.17,497.64 234.76,497.64 234.76,547.64 26.17,547.64 "/>
  <polygon class="fil0" points="26.17,387.64 329.32,387.64 329.32,437.64 26.17,437.64 "/>
  <polygon class="fil0" points="26.17,272.64 494.8,272.64 494.8,322.64 26.17,322.64 "/>
  <polygon class="fil0" points="2567.77,497.85 2976.28,497.85 2976.28,547.85 2567.77,547.85 "/>
  <polygon class="fil0" points="2498.31,612.57 2976.28,612.57 2976.28,662.57 2498.31,662.57 "/>
  <polygon class="fil0" points="2546.27,732.46 2976.28,732.46 2976.28,782.46 2546.27,782.46 "/>
  <polygon class="fil0" points="2619.03,847.37 2976.28,847.37 2976.28,897.37 2619.03,897.37 "/>
 </g>
</svg>
